<svg xmlns="http://www.w3.org/2000/svg" width="16" height="13" viewBox="0 0 16 13">
  <g fill="#3C3C3C" fill-rule="evenodd">
    <path d="M8,3.97959184 C6.23546667,3.97959184 4.8,5.40773469 4.8,7.16326531 C4.8,8.91879592 6.23546667,10.3469388 8,10.3469388 C9.76453333,10.3469388 11.2,8.91879592 11.2,7.16326531 C11.2,5.40773469 9.76453333,3.97959184 8,3.97959184"/>
    <path d="M14.7202667,2.65306122 L12.4472,2.65306122 L11.3805333,0 L4.61946667,0 L3.5528,2.65306122 L3.2,2.65306122 L3.2,1.32653061 L1.6,1.32653061 L1.6,2.65306122 L1.27973333,2.65306122 C0.573866667,2.65306122 0,3.224 0,3.92626531 L0,11.7177755 C0,12.4248163 0.578133333,13 1.2888,13 L14.7112,13 C15.4218667,13 16,12.4248163 16,11.7177755 L16,3.92626531 C16,3.224 15.4261333,2.65306122 14.7202667,2.65306122 L14.7202667,2.65306122 Z M2.13333333,1.85714286 L2.66666667,1.85714286 L2.66666667,2.65306122 L2.13333333,2.65306122 L2.13333333,1.85714286 Z M8,11.9387755 C5.35333333,11.9387755 3.2,9.79642857 3.2,7.16326531 C3.2,4.53010204 5.35333333,2.3877551 8,2.3877551 C10.6466667,2.3877551 12.8,4.53010204 12.8,7.16326531 C12.8,9.79642857 10.6466667,11.9387755 8,11.9387755 L8,11.9387755 Z M13.8666667,5.83673469 C13.2784,5.83673469 12.8,5.36077551 12.8,4.7755102 C12.8,4.1902449 13.2784,3.71428571 13.8666667,3.71428571 C14.4549333,3.71428571 14.9333333,4.1902449 14.9333333,4.7755102 C14.9333333,5.36077551 14.4549333,5.83673469 13.8666667,5.83673469 L13.8666667,5.83673469 Z"/>
  </g>
</svg>
