<svg xmlns="http://www.w3.org/2000/svg" width="19" height="18" viewBox="0 0 19 18">
  <g fill="#FFF" fill-rule="evenodd">
    <path d="M16.1016949,4.25454545 C15.9236102,4.25454545 15.779661,4.40083636 15.779661,4.58181818 C15.779661,4.7628 15.9236102,4.90909091 16.1016949,4.90909091 L18.3559322,4.90909091 L18.3559322,12.1090909 L3.54237288,12.1090909 L3.54237288,4.90909091 L5.79661017,4.90909091 C5.97437288,4.90909091 6.11864407,4.7628 6.11864407,4.58181818 C6.11864407,4.40083636 5.97437288,4.25454545 5.79661017,4.25454545 L3.54237288,4.25454545 L3.54237288,1.63636364 C3.54237288,1.45538182 3.39810169,1.30909091 3.22033898,1.30909091 L2.53054237,1.30909091 C2.38659322,0.745854545 1.88647458,0.327272727 1.28813559,0.327272727 C0.577728814,0.327272727 0,0.9144 0,1.63636364 C0,2.35832727 0.577728814,2.94545455 1.28813559,2.94545455 C1.88647458,2.94545455 2.38659322,2.52654545 2.53054237,1.96363636 L2.89830508,1.96363636 L2.89830508,14.7272727 C2.89830508,14.9082545 3.04257627,15.0545455 3.22033898,15.0545455 L5.48455932,15.0545455 C5.0900678,15.3530182 4.83050847,15.8265818 4.83050847,16.3636364 C4.83050847,17.2659273 5.55283051,18 6.44067797,18 C7.32852542,18 8.05084746,17.2659273 8.05084746,16.3636364 C8.05084746,15.8265818 7.79128814,15.3530182 7.39679661,15.0545455 L13.2133729,15.0545455 C12.8188814,15.3530182 12.559322,15.8265818 12.559322,16.3636364 C12.559322,17.2659273 13.2816441,18 14.1694915,18 C15.057339,18 15.779661,17.2659273 15.779661,16.3636364 C15.779661,15.8265818 15.5201017,15.3530182 15.1256102,15.0545455 L17.0677966,15.0545455 C17.2458814,15.0545455 17.3898305,14.9082545 17.3898305,14.7272727 C17.3898305,14.5462909 17.2458814,14.4 17.0677966,14.4 L3.54237288,14.4 L3.54237288,12.7636364 L19,12.7636364 L19,4.25454545 L16.1016949,4.25454545 L16.1016949,4.25454545 Z M1.28813559,2.29090909 C0.932932203,2.29090909 0.644067797,1.99701818 0.644067797,1.63636364 C0.644067797,1.27538182 0.932932203,0.981818182 1.28813559,0.981818182 C1.52547458,0.981818182 1.7309322,1.11436364 1.84267797,1.30909091 L1.61016949,1.30909091 C1.43240678,1.30909091 1.28813559,1.45538182 1.28813559,1.63636364 C1.28813559,1.81734545 1.43240678,1.96363636 1.61016949,1.96363636 L1.84267797,1.96363636 C1.7309322,2.15836364 1.52547458,2.29090909 1.28813559,2.29090909 L1.28813559,2.29090909 Z"/>
    <path d="M10.9491525,0 C8.46305085,0 6.44067797,2.05527273 6.44067797,4.58181818 C6.44067797,7.10836364 8.46305085,9.16363636 10.9491525,9.16363636 C13.4352542,9.16363636 15.4576271,7.10836364 15.4576271,4.58181818 C15.4576271,2.05527273 13.4352542,0 10.9491525,0 L10.9491525,0 Z M13.4310678,4.48592727 C13.3682712,4.54974545 13.2858305,4.58181818 13.2033898,4.58181818 C13.1209492,4.58181818 13.0385085,4.54974545 12.9757119,4.48592727 L11.2711864,2.75367273 L11.2711864,7.2 C11.2711864,7.38098182 11.1269153,7.52727273 10.9491525,7.52727273 C10.7713898,7.52727273 10.6271186,7.38098182 10.6271186,7.2 L10.6271186,2.75367273 L8.92259322,4.48592727 C8.85979661,4.54974545 8.77735593,4.58181818 8.69491525,4.58181818 C8.61247458,4.58181818 8.5300339,4.54974545 8.46723729,4.48592727 C8.34132203,4.35796364 8.34132203,4.15112727 8.46723729,4.02316364 L10.7211525,1.73258182 C10.7511017,1.70214545 10.7865254,1.67825455 10.8261356,1.66156364 C10.9047119,1.62850909 10.9935932,1.62850909 11.0721695,1.66156364 C11.1117797,1.67825455 11.1472034,1.70214545 11.1771525,1.73258182 L13.4310678,4.02316364 C13.5569831,4.15112727 13.5569831,4.35796364 13.4310678,4.48592727 L13.4310678,4.48592727 Z"/>
  </g>
</svg>
