<svg xmlns="http://www.w3.org/2000/svg" width="18" height="15" viewBox="0 0 18 15">
  <path fill="#3C3C3C" fill-rule="evenodd" d="M3.504,2.4 L3.2544,0.9 L2.3574,0.9 C2.2233,0.384 1.7577,0 1.2,0 C0.5382,0 0,0.5382 0,1.2 C0,1.8618 0.5382,2.4 1.2,2.4 C1.7577,2.4 2.2233,2.016 2.3574,1.5 L2.7456,1.5 L2.8959,2.4 L2.8842,2.4 L4.4355,10.2048 C3.696,10.2612 3.0804,10.8306 3.0075,11.5467 C2.9652,11.9682 3.1038,12.3903 3.3879,12.7044 C3.6726,13.0191 4.0782,13.2 4.5,13.2 L5.1,13.2 C5.1,14.1924 5.9073,15 6.9,15 C7.8927,15 8.7,14.1924 8.7,13.2 L12,13.2 C12,14.1924 12.8073,15 13.8,15 C14.7927,15 15.6,14.1924 15.6,13.2 L16.8,13.2 C16.9659,13.2 17.1,13.0659 17.1,12.9 C17.1,12.7341 16.9659,12.6 16.8,12.6 L15.495,12.6 C15.2472,11.9019 14.5821,11.4 13.8,11.4 C13.0182,11.4 12.3528,11.9019 12.105,12.6 L8.595,12.6 C8.3472,11.9019 7.6821,11.4 6.9,11.4 C6.1179,11.4 5.4528,11.9019 5.205,12.6 L4.5,12.6 C4.2474,12.6 4.0044,12.4914 3.8328,12.3021 C3.6597,12.1104 3.5787,11.8638 3.6048,11.607 C3.6504,11.1546 4.0686,10.8 4.5564,10.8 L4.7937,10.8 L4.8057,10.8 L16.5039,10.8 C17.3289,10.8 18,10.1289 18,9.3039 L18,2.4 L3.504,2.4 L3.504,2.4 Z M1.2,1.8 C0.8694,1.8 0.6,1.5306 0.6,1.2 C0.6,0.8691 0.8694,0.6 1.2,0.6 C1.5306,0.6 1.8,0.8691 1.8,1.2 C1.8,1.5306 1.5306,1.8 1.2,1.8 L1.2,1.8 Z"/>
</svg>
