<svg xmlns="http://www.w3.org/2000/svg" width="30" height="30" viewBox="0 0 30 30">
  <g fill="#FFF" fill-rule="evenodd">
    <path d="M28.674,0 L6.326,0 C5.5945,0 5,0.605084746 5,1.34898305 L5,5.08474576 L22.174,5.08474576 C23.4565,5.08474576 24.5,6.1459322 24.5,7.45067797 L24.5,20.3389831 L25.293,20.3389831 L30,25.1257627 L30,1.34898305 C30,0.605084746 29.4055,0 28.674,0"/>
    <path d="M22.174,6.10169492 L1.326,6.10169492 C0.595,6.10169492 0,6.70677966 0,7.45067797 L0,29.7020339 L4.707,24.9152542 L22.174,24.9152542 C22.9055,24.9152542 23.5,24.3101695 23.5,23.5662712 L23.5,7.45067797 C23.5,6.70677966 22.9055,6.10169492 22.174,6.10169492 L22.174,6.10169492 Z M5.5,11.1864407 L11.5,11.1864407 C11.7765,11.1864407 12,11.4142373 12,11.6949153 C12,11.9755932 11.7765,12.2033898 11.5,12.2033898 L5.5,12.2033898 C5.2235,12.2033898 5,11.9755932 5,11.6949153 C5,11.4142373 5.2235,11.1864407 5.5,11.1864407 L5.5,11.1864407 Z M18,19.3220339 L5.5,19.3220339 C5.2235,19.3220339 5,19.0942373 5,18.8135593 C5,18.5328814 5.2235,18.3050847 5.5,18.3050847 L18,18.3050847 C18.2765,18.3050847 18.5,18.5328814 18.5,18.8135593 C18.5,19.0942373 18.2765,19.3220339 18,19.3220339 L18,19.3220339 Z M18,15.7627119 L5.5,15.7627119 C5.2235,15.7627119 5,15.5349153 5,15.2542373 C5,14.9735593 5.2235,14.7457627 5.5,14.7457627 L18,14.7457627 C18.2765,14.7457627 18.5,14.9735593 18.5,15.2542373 C18.5,15.5349153 18.2765,15.7627119 18,15.7627119 L18,15.7627119 Z"/>
  </g>
</svg>
