<svg xmlns="http://www.w3.org/2000/svg" width="14" height="14" viewBox="0 0 14 14">
  <path fill="#3C3C3C" fill-rule="evenodd" d="M7,0 C3.1402,0 0,3.1402 0,7 C0,10.8598 3.1402,14 7,14 C8.70076667,14 9.6327,13.7263 9.933,13.139 C10.2893,12.4427333 9.65673333,11.5665667 9.04516667,10.7193333 C8.54723333,10.0298333 8.0325,9.31676667 8.32766667,9.0356 C8.70986667,8.6716 9.48033333,8.62236667 10.1836,8.62236667 C10.3894,8.62236667 10.5994,8.6268 10.8089333,8.631 C11.0212667,8.63543333 11.2336,8.63963333 11.4412667,8.63963333 C12.3354,8.63963333 14,8.63963333 14,7 C14,3.1402 10.8598,0 7,0 L7,0 Z M7,0.933333333 C7.6433,0.933333333 8.16666667,1.4567 8.16666667,2.1 C8.16666667,2.7433 7.6433,3.26666667 7,3.26666667 C6.3567,3.26666667 5.83333333,2.7433 5.83333333,2.1 C5.83333333,1.4567 6.3567,0.933333333 7,0.933333333 L7,0.933333333 Z M0.933333333,7 C0.933333333,6.3567 1.4567,5.83333333 2.1,5.83333333 C2.7433,5.83333333 3.26666667,6.3567 3.26666667,7 C3.26666667,7.6433 2.7433,8.16666667 2.1,8.16666667 C1.4567,8.16666667 0.933333333,7.6433 0.933333333,7 L0.933333333,7 Z M4.3603,11.2898333 C4.1398,11.5101 3.84673333,11.6316667 3.53523333,11.6316667 C3.2235,11.6316667 2.93066667,11.5101 2.71016667,11.2898333 C2.2554,10.8350667 2.2554,10.0947 2.71016667,9.6397 C2.93066667,9.41943333 3.2235,9.29833333 3.53523333,9.29833333 C3.84673333,9.29833333 4.1398,9.41943333 4.3603,9.6397 C4.81483333,10.0947 4.81483333,10.8350667 4.3603,11.2898333 L4.3603,11.2898333 Z M4.3603,4.3603 C4.1398,4.58056667 3.84673333,4.70166667 3.53523333,4.70166667 C3.2235,4.70166667 2.93066667,4.58056667 2.71016667,4.3603 C2.2554,3.9053 2.2554,3.16516667 2.71016667,2.71016667 C2.93066667,2.4899 3.2235,2.36833333 3.53523333,2.36833333 C3.84673333,2.36833333 4.1398,2.4899 4.3603,2.71016667 C4.81483333,3.16516667 4.81483333,3.9053 4.3603,4.3603 L4.3603,4.3603 Z M7,13.0666667 C6.3567,13.0666667 5.83333333,12.5433 5.83333333,11.9 C5.83333333,11.2567 6.3567,10.7333333 7,10.7333333 C7.6433,10.7333333 8.16666667,11.2567 8.16666667,11.9 C8.16666667,12.5433 7.6433,13.0666667 7,13.0666667 L7,13.0666667 Z M8.4231,7.71516667 C8.3349,7.85166667 8.18533333,7.93403333 8.02363333,7.9352 C7.49956667,7.93823333 7.23123333,8.0178 7.161,8.08476667 C6.916,8.31833333 6.9293,8.6184 6.9839,8.82886667 C7.02146667,8.9754 6.9909,9.12706667 6.89966667,9.24466667 C6.80913333,9.36156667 6.66703333,9.43156667 6.5198,9.43156667 C6.45073333,9.43156667 6.3826,9.41663333 6.31773333,9.38746667 C5.6686,9.0937 5.29153333,8.42006667 5.3795,7.71143333 C5.4663,7.00863333 6.03633333,6.42273333 6.7354,6.31843333 C7.45616667,6.2125 8.1662,6.60263333 8.4588,7.2618 C8.52436667,7.40903333 8.51106667,7.57866667 8.4231,7.71516667 L8.4231,7.71516667 Z M10.0333333,4.70166667 C9.7216,4.70166667 9.42876667,4.58056667 9.2085,4.3603 C8.75373333,3.9053 8.75373333,3.16516667 9.2085,2.71016667 C9.42853333,2.4899 9.7216,2.36833333 10.0333333,2.36833333 C10.3450667,2.36833333 10.6381333,2.4899 10.8581667,2.71016667 C11.3129333,3.16516667 11.3129333,3.9053 10.8581667,4.3603 C10.6379,4.58056667 10.3450667,4.70166667 10.0333333,4.70166667 L10.0333333,4.70166667 Z M11.9,7.7 C11.2567,7.7 10.7333333,7.17663333 10.7333333,6.53333333 C10.7333333,5.89003333 11.2567,5.36666667 11.9,5.36666667 C12.5433,5.36666667 13.0666667,5.89003333 13.0666667,6.53333333 C13.0666667,7.17663333 12.5433,7.7 11.9,7.7 L11.9,7.7 Z"/>
</svg>
