<svg xmlns="http://www.w3.org/2000/svg" width="16" height="17" viewBox="0 0 16 17">
  <g fill="#FFF" fill-rule="evenodd">
    <path d="M15.7858909,15.9496833 L13.8082909,14.0238667 L15.6942545,13.1055833 L10.5634909,11.2644833 L12.4544,16.2616333 L13.3969455,14.4245 L15.3745455,16.3503167 C15.4312727,16.4055667 15.5057455,16.4333333 15.5802182,16.4333333 C15.6546909,16.4333333 15.7288727,16.4055667 15.7858909,16.3503167 C15.8993455,16.2395333 15.8993455,16.0604667 15.7858909,15.9496833 L15.7858909,15.9496833 Z M11.5453091,12.2207333 L14.2312727,13.18435 L13.1005091,13.73515 L12.5349818,14.8364667 L11.5453091,12.2207333 L11.5453091,12.2207333 Z"/>
    <path d="M10.4727273,13.6 L3.2,13.6 C3.03941818,13.6 2.90909091,13.47335 2.90909091,13.3166667 C2.90909091,13.1599833 3.03941818,13.0333333 3.2,13.0333333 L10.3028364,13.0333333 L9.65963636,11.3333333 L3.2,11.3333333 C3.03941818,11.3333333 2.90909091,11.2066833 2.90909091,11.05 C2.90909091,10.8933167 3.03941818,10.7666667 3.2,10.7666667 L9.44523636,10.7666667 L9.09090909,9.82996667 L13.6727273,11.47415 L13.6727273,4.1327 L9.42952727,0 L0,0 L0,17 L11.8036364,17 L10.5143273,13.5920667 C10.5000727,13.59405 10.4875636,13.6 10.4727273,13.6 L10.4727273,13.6 Z M9.01818182,0.566666667 L13.0909091,4.53333333 L9.01818182,4.53333333 L9.01818182,0.566666667 L9.01818182,0.566666667 Z M3.2,3.96666667 L6.10909091,3.96666667 C6.26967273,3.96666667 6.4,4.09331667 6.4,4.25 C6.4,4.40668333 6.26967273,4.53333333 6.10909091,4.53333333 L3.2,4.53333333 C3.03941818,4.53333333 2.90909091,4.40668333 2.90909091,4.25 C2.90909091,4.09331667 3.03941818,3.96666667 3.2,3.96666667 L3.2,3.96666667 Z M3.2,6.23333333 L10.4727273,6.23333333 C10.6333091,6.23333333 10.7636364,6.35998333 10.7636364,6.51666667 C10.7636364,6.67335 10.6333091,6.8 10.4727273,6.8 L3.2,6.8 C3.03941818,6.8 2.90909091,6.67335 2.90909091,6.51666667 C2.90909091,6.35998333 3.03941818,6.23333333 3.2,6.23333333 L3.2,6.23333333 Z M3.2,8.5 L10.4727273,8.5 C10.6333091,8.5 10.7636364,8.62665 10.7636364,8.78333333 C10.7636364,8.94001667 10.6333091,9.06666667 10.4727273,9.06666667 L3.2,9.06666667 C3.03941818,9.06666667 2.90909091,8.94001667 2.90909091,8.78333333 C2.90909091,8.62665 3.03941818,8.5 3.2,8.5 L3.2,8.5 Z"/>
  </g>
</svg>
