<svg xmlns="http://www.w3.org/2000/svg" width="30" height="31" viewBox="0 0 30 31">
  <g fill="#FFF" fill-rule="evenodd">
    <path d="M29.9564151,13.3119636 C29.9275472,13.2426364 29.8862264,13.1800727 29.8335849,13.1282182 L23.0416981,6.36514545 C22.8203774,6.14476364 22.4626415,6.14476364 22.2413208,6.36514545 C22.02,6.58552727 22.02,6.94174545 22.2413208,7.16212727 L28.0675472,12.9636364 L15.8490566,12.9636364 C15.5360377,12.9636364 15.2830189,13.2155818 15.2830189,13.5272727 C15.2830189,13.8389636 15.5360377,14.0909091 15.8490566,14.0909091 L28.0675472,14.0909091 L22.2413208,19.8924182 C22.02,20.1128 22.02,20.4690182 22.2413208,20.6894 C22.3516981,20.7993091 22.4966038,20.8545455 22.6415094,20.8545455 C22.7864151,20.8545455 22.9313208,20.7993091 23.0416981,20.6894 L29.8335849,13.9263273 C29.8862264,13.8744727 29.9275472,13.8119091 29.9564151,13.7425818 C30.0135849,13.6050545 30.0135849,13.4500545 29.9564151,13.3119636"/>
    <path d="M19.8113208,16.3454545 C19.4983019,16.3454545 19.245283,16.5974 19.245283,16.9090909 L19.245283,25.9272727 L13.5849057,25.9272727 L13.5849057,4.50909091 C13.5849057,4.26334545 13.425283,4.04634545 13.1903774,3.97194545 L4.21188679,1.12727273 L19.245283,1.12727273 L19.245283,10.1454545 C19.245283,10.4571455 19.4983019,10.7090909 19.8113208,10.7090909 C20.1243396,10.7090909 20.3773585,10.4571455 20.3773585,10.1454545 L20.3773585,0.563636364 C20.3773585,0.251945455 20.1243396,0 19.8113208,0 L0.566037736,0 L0.514528302,0.0107090909 L0.42509434,0.0281818182 C0.37245283,0.0422727273 0.324339623,0.0614363636 0.279056604,0.0890545455 L0.232075472,0.108218182 L0.18509434,0.151618182 L0.156792453,0.178109091 C0.113207547,0.223763636 0.0781132075,0.275618182 0.0526415094,0.331981818 L0.0401886792,0.3658 C0.0164150943,0.428927273 0,0.494872727 0,0.563636364 L0,26.4909091 C0,26.5613636 0.0164150943,26.6278727 0.040754717,26.691 L0.070754717,26.7490545 L0.145471698,26.8595273 L0.196415094,26.9102545 L0.30509434,26.9835273 L0.367924528,27.0150909 L0.394528302,27.0280545 L12.8473585,30.9735091 C12.9033962,30.9909818 12.9611321,31 13.0188679,31 C13.1377358,31 13.2549057,30.9628 13.3528302,30.8917818 C13.4988679,30.7852545 13.5849057,30.6161636 13.5849057,30.4363636 L13.5849057,27.0545455 L19.8113208,27.0545455 C20.1243396,27.0545455 20.3773585,26.8026 20.3773585,26.4909091 L20.3773585,16.9090909 C20.3773585,16.5974 20.1243396,16.3454545 19.8113208,16.3454545"/>
  </g>
</svg>
