<svg xmlns="http://www.w3.org/2000/svg" width="30" height="30" viewBox="0 0 30 30">
  <g fill="#FFF" fill-rule="evenodd">
    <path d="M15,10 C12.2433333,10 10,12.2433333 10,15 C10,17.7572222 12.2433333,20 15,20 C17.7566667,20 20,17.7572222 20,15 C20,12.2433333 17.7566667,10 15,10"/>
    <path d="M28.4555556,11.6666667 L27.3344444,11.6666667 C27.0483333,10.605 26.6277778,9.58888889 26.0788889,8.635 L26.8711111,7.84277778 C27.1633333,7.55111111 27.3238889,7.16333333 27.3238889,6.75055556 C27.3238889,6.33777778 27.1633333,5.95 26.8711111,5.65833333 L24.3416667,3.12888889 C23.7588889,2.54611111 22.7416667,2.545 22.1572222,3.12888889 L21.365,3.92111111 C20.4111111,3.37222222 19.395,2.95111111 18.3333333,2.66555556 L18.3333333,1.54444444 C18.3333333,0.692777778 17.6405556,0 16.7888889,0 L13.2111111,0 C12.3594444,0 11.6666667,0.692777778 11.6666667,1.54444444 L11.6666667,2.66555556 C10.605,2.95111111 9.58888889,3.37222222 8.635,3.92111111 L7.84277778,3.12888889 C7.25888889,2.54444444 6.24111111,2.54555556 5.65833333,3.12888889 L3.12888889,5.65833333 C2.83666667,5.95 2.67611111,6.33777778 2.67611111,6.75055556 C2.67611111,7.16333333 2.83666667,7.55111111 3.12888889,7.84277778 L3.92111111,8.635 C3.37222222,9.58888889 2.95111111,10.605 2.66555556,11.6666667 L1.54444444,11.6666667 C0.692777778,11.6666667 0,12.3594444 0,13.2111111 L0,16.7883333 C0,17.64 0.692777778,18.3333333 1.54444444,18.3333333 L2.66555556,18.3333333 C2.95111111,19.395 3.37222222,20.4111111 3.92111111,21.365 L3.12888889,22.1572222 C2.83666667,22.4488889 2.67611111,22.8366667 2.67611111,23.2494444 C2.67611111,23.6622222 2.83666667,24.05 3.12888889,24.3422222 L5.65833333,26.8711111 C6.24111111,27.455 7.25888889,27.4555556 7.84277778,26.8711111 L8.635,26.0788889 C9.58888889,26.6277778 10.605,27.0483333 11.6666667,27.3344444 L11.6666667,28.455 C11.6666667,29.3066667 12.3594444,30 13.2111111,30 L16.7888889,30 C17.6405556,30 18.3333333,29.3066667 18.3333333,28.455 L18.3333333,27.3344444 C19.395,27.0483333 20.4111111,26.6277778 21.365,26.0788889 L22.1572222,26.8711111 C22.7416667,27.4555556 23.7583333,27.4544444 24.3416667,26.8711111 L26.8711111,24.3422222 C27.1633333,24.05 27.3238889,23.6622222 27.3238889,23.2494444 C27.3238889,22.8366667 27.1633333,22.4488889 26.8711111,22.1572222 L26.0788889,21.365 C26.6277778,20.4111111 27.0483333,19.395 27.3344444,18.3333333 L28.4555556,18.3333333 C29.3072222,18.3333333 30,17.64 30,16.7883333 L30,13.2111111 C30,12.3594444 29.3072222,11.6666667 28.4555556,11.6666667 L28.4555556,11.6666667 Z M21.6666667,15 C21.6666667,18.6761111 18.6761111,21.6666667 15,21.6666667 C11.3238889,21.6666667 8.33333333,18.6761111 8.33333333,15 C8.33333333,11.3238889 11.3238889,8.33333333 15,8.33333333 C18.6761111,8.33333333 21.6666667,11.3238889 21.6666667,15 L21.6666667,15 Z"/>
  </g>
</svg>
