<svg xmlns="http://www.w3.org/2000/svg" width="20" height="17" viewBox="0 0 20 17">
  <g fill="#FFF" fill-rule="evenodd">
    <path d="M19.5714754,15.8559 L15.6881967,8.95186 C15.5547541,8.71556 15.3180328,8.57446 15.0544262,8.57446 C14.7901639,8.57446 14.5534426,8.71556 14.4203279,8.95186 L10.5367213,15.8559 C10.4029508,16.09424 10.4019672,16.37916 10.5340984,16.61818 C10.6668852,16.8572 10.9045902,17 11.1704918,17 L18.9380328,17 C19.2036066,17 19.4416393,16.8572 19.5737705,16.61818 C19.7062295,16.37916 19.7055738,16.09424 19.5714754,15.8559 L19.5714754,15.8559 Z M19.0052459,16.27954 C18.995082,16.29824 18.975082,16.32 18.9380328,16.32 L11.1704918,16.32 C11.1331148,16.32 11.1131148,16.29824 11.1029508,16.27954 C11.0927869,16.26084 11.0845902,16.23194 11.1032787,16.19862 L14.9868852,9.29458 C15.0055738,9.26126 15.0337705,9.25446 15.0544262,9.25446 C15.0744262,9.25446 15.102623,9.26126 15.1216393,9.29458 L19.0052459,16.19862 C19.0239344,16.23194 19.0157377,16.26118 19.0052459,16.27954 L19.0052459,16.27954 Z"/>
    <path d="M15.0819672 10.88C14.9009836 10.88 14.7540984 11.03232 14.7540984 11.22L14.7540984 13.94C14.7540984 14.12802 14.9009836 14.28 15.0819672 14.28 15.2629508 14.28 15.4098361 14.12802 15.4098361 13.94L15.4098361 11.22C15.4098361 11.03232 15.2629508 10.88 15.0819672 10.88M14.8491803 15.0586C14.7901639 15.1232 14.7540984 15.2116 14.7540984 15.3 14.7540984 15.3884 14.7901639 15.47714 14.8491803 15.5414 14.9114754 15.6026 14.9967213 15.64 15.0819672 15.64 15.1672131 15.64 15.252459 15.6026 15.3147541 15.5414 15.3737705 15.47714 15.4098361 15.3884 15.4098361 15.3 15.4098361 15.2116 15.3737705 15.1232 15.3147541 15.0586 15.1934426 14.9328 14.9737705 14.9328 14.8491803 15.0586M0 .41888L0 13.32596C1.7157377 11.9493 5.56918033 8.8366 7.36032787 7.225L0 .41888M13.4301639 8.68802L13.5708197 8.43778C13.877377 7.89276 14.4459016 7.55446 15.0544262 7.55446 15.662623 7.55446 16.2311475 7.8931 16.5377049 8.43778L19.0163934 12.84452 19.0163934.41888 11.6678689 7.21378 13.4301639 8.68802M10.2619672 7.60274L18.4839344 0 .532459016 0 8.75442623 7.6024C9.16983607 7.98762 9.84622951 7.98762 10.2619672 7.60274"/>
    <path d="M13.0960656,9.282 L11.1718033,7.67244 L10.6983607,8.11036 C10.3704918,8.41398 9.93934426,8.56562 9.50819672,8.56562 C9.07704918,8.56562 8.64590164,8.41398 8.31770492,8.11036 L7.85409836,7.68128 C6.04393443,9.31804 2.00131148,12.58068 0.310491803,13.93626 C0.316721311,13.93694 0.321639344,13.94 0.327868852,13.94 L10.4757377,13.94 L13.0960656,9.282"/>
  </g>
</svg>
