<svg xmlns="http://www.w3.org/2000/svg" width="15" height="16" viewBox="0 0 15 16">
  <path fill="#27921A" fill-rule="evenodd" d="M14.9,0.306909091 C14.8361765,0.251345455 14.7520588,0.226618182 14.6682353,0.236509091 L5.55058824,1.40014545 C5.40382353,1.41905455 5.29411765,1.54269091 5.29411765,1.68901818 L5.29411765,11.7608727 C4.75735294,11.1226182 3.90382353,10.7072 2.94117647,10.7072 C1.31941176,10.7072 0,11.8816 0,13.3253818 C0,14.7691636 1.31941176,15.9435636 2.94117647,15.9435636 C4.56294118,15.9435636 5.88235294,14.7691636 5.88235294,13.3253818 L5.88235294,3.69018182 L14.4117647,2.6016 L14.4117647,9.14269091 C13.875,8.50443636 13.0214706,8.08901818 12.0588235,8.08901818 C10.4370588,8.08901818 9.11764706,9.26341818 9.11764706,10.7072 C9.11764706,12.1509818 10.4370588,13.3253818 12.0588235,13.3253818 C13.6805882,13.3253818 15,12.1509818 15,10.7072 L15,0.525381818 C15,0.4416 14.9635294,0.361890909 14.9,0.306909091"/>
</svg>
