<svg xmlns="http://www.w3.org/2000/svg" width="16" height="16" viewBox="0 0 16 16">
  <g fill="#FFF" fill-rule="evenodd">
    <polyline points="13.214 0 8.267 0 8.267 4.267 15.881 4.267 13.214 0"/>
    <polyline points="7.733 0 2.786 0 .119 4.267 7.733 4.267 7.733 0"/>
    <path d="M0,16 L16,16 L16,4.8 L0,4.8 L0,16 Z M6.0552,11.6552 C6.0032,11.7072 5.93493333,11.7333333 5.86666667,11.7333333 C5.7984,11.7333333 5.73013333,11.7072 5.67813333,11.6552 C5.57386667,11.5509333 5.57386667,11.3824 5.67813333,11.2781333 L6.47786667,10.4784 C6.50266667,10.4536 6.532,10.4341333 6.5648,10.4205333 C6.62986667,10.3936 6.70346667,10.3936 6.76853333,10.4205333 C6.80133333,10.4341333 6.83066667,10.4536 6.85546667,10.4784 L7.6552,11.2781333 C7.75946667,11.3824 7.75946667,11.5509333 7.6552,11.6552 C7.6032,11.7072 7.53493333,11.7333333 7.46666667,11.7333333 C7.3984,11.7333333 7.33013333,11.7072 7.27813333,11.6552 L6.93333333,11.3104 L6.93333333,13.0666667 C6.93333333,13.2141333 6.81386667,13.3333333 6.66666667,13.3333333 C6.51946667,13.3333333 6.4,13.2141333 6.4,13.0666667 L6.4,11.3104 L6.0552,11.6552 L6.0552,11.6552 Z M10.1333333,14.4 L5.86666667,14.4 C5.71946667,14.4 5.6,14.2808 5.6,14.1333333 C5.6,13.9858667 5.71946667,13.8666667 5.86666667,13.8666667 L10.1333333,13.8666667 C10.2805333,13.8666667 10.4,13.9858667 10.4,14.1333333 C10.4,14.2808 10.2805333,14.4 10.1333333,14.4 L10.1333333,14.4 Z M10.3218667,11.6552 C10.2698667,11.7072 10.2016,11.7333333 10.1333333,11.7333333 C10.0650667,11.7333333 9.9968,11.7072 9.9448,11.6552 L9.6,11.3104 L9.6,13.0666667 C9.6,13.2141333 9.48053333,13.3333333 9.33333333,13.3333333 C9.18613333,13.3333333 9.06666667,13.2141333 9.06666667,13.0666667 L9.06666667,11.3104 L8.72186667,11.6552 C8.66986667,11.7072 8.6016,11.7333333 8.53333333,11.7333333 C8.46506667,11.7333333 8.3968,11.7072 8.3448,11.6552 C8.24053333,11.5509333 8.24053333,11.3824 8.3448,11.2781333 L9.14453333,10.4784 C9.16933333,10.4536 9.19866667,10.4341333 9.23146667,10.4205333 C9.29653333,10.3936 9.37013333,10.3936 9.4352,10.4205333 C9.468,10.4341333 9.49733333,10.4536 9.52213333,10.4784 L10.3218667,11.2781333 C10.4261333,11.3824 10.4261333,11.5509333 10.3218667,11.6552 L10.3218667,11.6552 Z M9.6,7.73333333 L6.4,7.73333333 C5.95893333,7.73333333 5.6,7.3744 5.6,6.93333333 C5.6,6.49226667 5.95893333,6.13333333 6.4,6.13333333 L9.6,6.13333333 C10.0410667,6.13333333 10.4,6.49226667 10.4,6.93333333 C10.4,7.3744 10.0410667,7.73333333 9.6,7.73333333 L9.6,7.73333333 Z"/>
  </g>
</svg>
