<svg xmlns="http://www.w3.org/2000/svg" width="14" height="14" viewBox="0 0 14 14">
  <g fill="#FFF" fill-rule="evenodd">
    <polygon points="7.875 1.429 9.625 1.429 9.625 4.286 7.875 4.286"/>
    <path d="M11.49575,0 L0,0 L0,14 L14,14 L14,2.45314286 L11.49575,0 L11.49575,0 Z M2.91666667,0.571428571 L10.5,0.571428571 L10.5,5.14285714 L2.91666667,5.14285714 L2.91666667,0.571428571 Z M2.33333333,7.42857143 L11.375,7.42857143 L11.375,13.4285714 L2.33333333,13.4285714 L2.33333333,7.42857143 Z"/>
    <path d="M3.79166667 9.14285714L5.83333333 9.14285714C5.994625 9.14285714 6.125 9.01514286 6.125 8.85714286 6.125 8.69914286 5.994625 8.57142857 5.83333333 8.57142857L3.79166667 8.57142857C3.630375 8.57142857 3.5 8.69914286 3.5 8.85714286 3.5 9.01514286 3.630375 9.14285714 3.79166667 9.14285714M3.79166667 10.2857143L6.70833333 10.2857143C6.869625 10.2857143 7 10.158 7 10 7 9.842 6.869625 9.71428571 6.70833333 9.71428571L3.79166667 9.71428571C3.630375 9.71428571 3.5 9.842 3.5 10 3.5 10.158 3.630375 10.2857143 3.79166667 10.2857143M7.58333333 10.2857143C7.66208333 10.2857143 7.735 10.2542857 7.79041667 10.2028571 7.84291667 10.1485714 7.875 10.0742857 7.875 10 7.875 9.92571429 7.84291667 9.85114286 7.79041667 9.79714286 7.6825 9.69142857 7.48708333 9.69142857 7.37916667 9.79714286 7.32345833 9.85114286 7.29166667 9.92257143 7.29166667 10 7.29166667 10.0771429 7.32345833 10.1485714 7.37625 10.2028571 7.431375 10.2542857 7.50429167 10.2857143 7.58333333 10.2857143"/>
  </g>
</svg>
