<svg xmlns="http://www.w3.org/2000/svg" width="17" height="17" viewBox="0 0 17 17">
  <path fill="#FFF" fill-rule="evenodd" d="M15.5833333,1.86603333 L15.5833333,0.820816667 C15.5833333,0.368333333 15.215,0 14.7628,0 L2.2372,0 C1.78471667,0 1.41666667,0.368333333 1.41666667,0.820816667 L1.41666667,1.86603333 L0,3.2827 L0,4.95833333 C0,5.00621667 0.00283333333,5.05325 0.00708333333,5.1 L0,5.1 L0,17 L1.7,17 L1.7,16.15 L15.3,16.15 L15.3,17 L17,17 L17,5.1 L16.9929167,5.1 C16.9971667,5.05325 17,5.00621667 17,4.95833333 L17,3.2827 L15.5833333,1.86603333 L15.5833333,1.86603333 Z M0.566666667,16.15 L1.13333333,16.15 L1.13333333,16.4333333 L0.566666667,16.4333333 L0.566666667,16.15 Z M1.13333333,12.1833333 L0.566666667,12.1833333 L0.566666667,6.15938333 C0.730716667,6.2951 0.923383333,6.39653333 1.13333333,6.45631667 L1.13333333,12.1833333 L1.13333333,12.1833333 Z M8.78333333,4.81666667 L8.78333333,0.566666667 L10.4833333,0.566666667 L10.4833333,1.98333333 L10.7666667,3.42805 L10.7666667,4.95833333 C10.7666667,5.50516667 10.3218333,5.95 9.775,5.95 C9.22816667,5.95 8.78333333,5.50516667 8.78333333,4.95833333 L8.78333333,4.81666667 L8.78333333,4.81666667 Z M3.4,4.81666667 L3.4,3.47848333 L4.25,2.06181667 L4.25,0.566666667 L5.95,0.566666667 L5.95,1.95528333 L5.67233333,3.34446667 L5.66808333,4.25 L5.66666667,4.25 L5.66666667,4.95833333 C5.66666667,5.50516667 5.22183333,5.95 4.675,5.95 L4.39166667,5.95 C3.84483333,5.95 3.4,5.50516667 3.4,4.95833333 L3.4,4.81666667 L3.4,4.81666667 Z M1.98333333,12.75 L2.55,12.75 L2.55,15.5833333 L1.98333333,15.5833333 L1.98333333,12.75 Z M3.11666667,12.75 L3.68333333,12.75 L3.68333333,15.5833333 L3.11666667,15.5833333 L3.11666667,12.75 Z M4.25,12.75 L4.81666667,12.75 L4.81666667,15.5833333 L4.25,15.5833333 L4.25,12.75 Z M4.81666667,8.5 C4.66026667,8.5 4.53333333,8.62665 4.53333333,8.78333333 L4.53333333,10.3660333 L2.95063333,8.78333333 L3.06935,8.66461667 C3.53628333,8.19825 4.1565,7.94098333 4.81666667,7.94098333 C5.47683333,7.94098333 6.09733333,8.19825 6.56398333,8.66461667 L6.6827,8.78333333 L5.1,10.3660333 L5.1,8.78333333 C5.1,8.62665 4.97306667,8.5 4.81666667,8.5 L4.81666667,8.5 Z M5.38333333,12.75 L5.95,12.75 L5.95,15.5833333 L5.38333333,15.5833333 L5.38333333,12.75 Z M6.51666667,12.75 L7.08333333,12.75 L7.08333333,15.5833333 L6.51666667,15.5833333 L6.51666667,12.75 Z M7.65,12.75 L8.21666667,12.75 L8.21666667,15.5833333 L7.65,15.5833333 L7.65,12.75 Z M8.78333333,12.75 L9.35,12.75 L9.35,15.5833333 L8.78333333,15.5833333 L8.78333333,12.75 Z M9.91666667,12.75 L10.4833333,12.75 L10.4833333,15.5833333 L9.91666667,15.5833333 L9.91666667,12.75 Z M11.05,12.75 L11.6166667,12.75 L11.6166667,15.5833333 L11.05,15.5833333 L11.05,12.75 Z M11.05,12.1833333 C10.7374833,12.1833333 10.4833333,11.9289 10.4833333,11.6166667 C10.4833333,11.3044333 10.7374833,11.05 11.05,11.05 C11.3625167,11.05 11.6166667,11.3044333 11.6166667,11.6166667 C11.6166667,11.9289 11.3625167,12.1833333 11.05,12.1833333 L11.05,12.1833333 Z M12.1833333,12.75 L12.75,12.75 L12.75,15.5833333 L12.1833333,15.5833333 L12.1833333,12.75 Z M12.75,12.1833333 C12.4374833,12.1833333 12.1833333,11.9289 12.1833333,11.6166667 C12.1833333,11.3044333 12.4374833,11.05 12.75,11.05 C13.0625167,11.05 13.3166667,11.3044333 13.3166667,11.6166667 C13.3166667,11.9289 13.0625167,12.1833333 12.75,12.1833333 L12.75,12.1833333 Z M13.3166667,12.75 L13.8833333,12.75 L13.8833333,15.5833333 L13.3166667,15.5833333 L13.3166667,12.75 Z M14.45,12.75 L15.0166667,12.75 L15.0166667,15.5833333 L14.45,15.5833333 L14.45,12.75 Z M15.3,12.1833333 L13.7258,12.1833333 C13.8232667,12.0158833 13.8833333,11.8240667 13.8833333,11.6166667 C13.8833333,11.0324333 13.43765,10.5558667 12.8692833,10.4952333 C12.971,10.3255167 13.0333333,10.1288833 13.0333333,9.91666667 C13.0333333,9.29163333 12.5250333,8.78333333 11.9,8.78333333 C11.2749667,8.78333333 10.7666667,9.29163333 10.7666667,9.91666667 C10.7666667,10.1288833 10.829,10.3255167 10.9307167,10.4952333 C10.3626333,10.5558667 9.91666667,11.0324333 9.91666667,11.6166667 C9.91666667,11.8240667 9.97673333,12.0158833 10.0742,12.1833333 L5.66666667,12.1833333 L5.66666667,11.3333333 L6.8,11.3333333 C6.9564,11.3333333 7.08333333,11.2066833 7.08333333,11.05 C7.08333333,10.8933167 6.9564,10.7666667 6.8,10.7666667 L5.50063333,10.7666667 L7.48396667,8.78333333 L6.96461667,8.26398333 C6.39086667,7.69051667 5.62813333,7.37431667 4.81666667,7.37431667 C4.0052,7.37431667 3.24246667,7.69051667 2.66871667,8.26398333 L2.14936667,8.78333333 L4.13298333,10.7666667 L2.83333333,10.7666667 C2.67693333,10.7666667 2.55,10.8933167 2.55,11.05 C2.55,11.2066833 2.67693333,11.3333333 2.83333333,11.3333333 L3.96666667,11.3333333 L3.96666667,12.1833333 L1.7,12.1833333 L1.7,6.51666667 L1.84166667,6.51666667 C2.36866667,6.51666667 2.83446667,6.25316667 3.11666667,5.8514 C3.39886667,6.25316667 3.86466667,6.51666667 4.39166667,6.51666667 L4.675,6.51666667 C5.202,6.51666667 5.6678,6.25316667 5.95,5.8514 C6.2322,6.25316667 6.698,6.51666667 7.225,6.51666667 C7.752,6.51666667 8.2178,6.25316667 8.5,5.8514 C8.7822,6.25316667 9.248,6.51666667 9.775,6.51666667 C10.302,6.51666667 10.7678,6.25316667 11.05,5.8514 C11.3322,6.25316667 11.798,6.51666667 12.325,6.51666667 L12.6083333,6.51666667 C13.1353333,6.51666667 13.6011333,6.25288333 13.8833333,5.8514 C14.1655333,6.25288333 14.6313333,6.51666667 15.1583333,6.51666667 L15.3,6.51666667 L15.3,12.1833333 L15.3,12.1833333 Z M15.8666667,16.15 L16.4333333,16.15 L16.4333333,16.4333333 L15.8666667,16.4333333 L15.8666667,16.15 Z M16.4333333,12.1833333 L15.8666667,12.1833333 L15.8666667,6.45631667 C16.0766167,6.39653333 16.2692833,6.2951 16.4333333,6.15938333 L16.4333333,12.1833333 L16.4333333,12.1833333 Z M16.4333333,3.96666667 L16.4333333,4.95833333 C16.4333333,5.06713333 16.4115167,5.1697 16.3789333,5.26773333 L16.3715667,5.28841667 C16.3557,5.33318333 16.337,5.37596667 16.3154667,5.41705 C16.3154667,5.41733333 16.3151833,5.41761667 16.3151833,5.4179 C16.2522833,5.53803333 16.16615,5.64145 16.0635833,5.72446667 C16.0593333,5.72786667 16.0553667,5.73126667 16.0514,5.73466667 C15.9103,5.84488333 15.7391667,5.91656667 15.5518833,5.93725 L15.4382667,5.95 L15.1583333,5.95 C14.6115,5.95 14.1666667,5.50516667 14.1666667,4.95833333 L14.1666667,3.32151667 L13.3166667,1.90485 L13.3166667,0.566666667 L14.7628,0.566666667 C14.9027667,0.566666667 15.0166667,0.680566667 15.0166667,0.820816667 L15.0166667,2.10063333 L16.4333333,3.5173 L16.4333333,3.96666667 L16.4333333,3.96666667 Z"/>
</svg>
