<svg xmlns="http://www.w3.org/2000/svg" width="18" height="18" viewBox="0 0 18 18">
  <path fill="#FFF" fill-rule="evenodd" d="M17.7,16.8 L17.1,16.8 L17.1,9.9 L13.5,9.9 L13.5,16.8 L13.2,16.8 L13.2,12.6 L9.6,12.6 L9.6,16.8 L9.3,16.8 L9.3,3.3 L5.7,3.3 L5.7,16.8 L5.4,16.8 L5.4,5.7 L1.8,5.7 L1.8,16.8 L1.2,16.8 L1.2,0.3 C1.2,0.1341 1.0659,0 0.9,0 C0.7341,0 0.6,0.1341 0.6,0.3 L0.6,16.8 L0.3,16.8 C0.1341,16.8 0,16.9341 0,17.1 C0,17.2659 0.1341,17.4 0.3,17.4 L0.6,17.4 L0.6,17.7 C0.6,17.8659 0.7341,18 0.9,18 C1.0659,18 1.2,17.8659 1.2,17.7 L1.2,17.4 L17.7,17.4 C17.8659,17.4 18,17.2659 18,17.1 C18,16.9341 17.8659,16.8 17.7,16.8"/>
</svg>
