<svg xmlns="http://www.w3.org/2000/svg" width="16" height="21" viewBox="0 0 16 21">
  <path fill="#3C3C3C" fill-rule="evenodd" d="M14.2657391,15.01115 L10.9429565,13.3392 C10.6295652,13.1817 10.4347826,12.8646 10.4347826,12.5118 L10.4347826,11.32845 C10.5144348,11.23045 10.5982609,11.11915 10.6848696,10.9956 C11.1161739,10.3831 11.4612174,9.7013 11.7123478,8.96595 C12.2031304,8.7395 12.5217391,8.25125 12.5217391,7.7 L12.5217391,6.3 C12.5217391,5.96295 12.3965217,5.6364 12.173913,5.38125 L12.173913,3.5196 C12.1933913,3.3271 12.269913,2.18085 11.4462609,1.2355 C10.7318261,0.41545 9.57252174,0 8,0 C6.42747826,0 5.26817391,0.41545 4.55373913,1.2355 C3.73008696,2.18085 3.8066087,3.3271 3.82608696,3.5196 L3.82608696,5.38125 C3.60347826,5.6364 3.47826087,5.96295 3.47826087,6.3 L3.47826087,7.7 C3.47826087,8.12595 3.6706087,8.5232 3.99895652,8.78815 C4.31756522,10.0576 4.98469565,11.0145 5.2173913,11.32145 L5.2173913,12.47925 C5.2173913,12.81805 5.03373913,13.1292 4.73843478,13.2916 L1.63513043,14.9947 C0.626434783,15.5484 0,16.6103 0,17.7667 L0,18.9 C0,20.5611 5.23304348,21 8,21 C10.7669565,21 16,20.5611 16,18.9 L16,17.83495 C16,16.63165 15.3353043,15.54945 14.2657391,15.01115"/>
</svg>
