<svg xmlns="http://www.w3.org/2000/svg" width="19" height="15" viewBox="0 0 19 15">
  <path fill="#3E3E3E" fill-rule="evenodd" d="M18.6724138,0 L0.327586207,0 C0.146758621,0 0,0.14576087 0,0.326086957 L0,14.673913 C0,14.8542391 0.146758621,15 0.327586207,15 L18.6724138,15 C18.8532414,15 19,14.8542391 19,14.673913 L19,0.326086957 C19,0.14576087 18.8532414,0 18.6724138,0 L18.6724138,0 Z M0.655172414,11.4130435 L3.27586207,11.4130435 L3.27586207,14.3478261 L0.655172414,14.3478261 L0.655172414,11.4130435 Z M0.655172414,7.82608696 L3.27586207,7.82608696 L3.27586207,10.7608696 L0.655172414,10.7608696 L0.655172414,7.82608696 Z M0.655172414,4.23913043 L3.27586207,4.23913043 L3.27586207,7.17391304 L0.655172414,7.17391304 L0.655172414,4.23913043 Z M0.655172414,0.652173913 L3.27586207,0.652173913 L3.27586207,3.58695652 L0.655172414,3.58695652 L0.655172414,0.652173913 Z M11.9690172,7.77521739 L8.36556897,10.0578261 C8.31217241,10.091413 8.25091379,10.1086957 8.18965517,10.1086957 C8.13560345,10.1086957 8.08122414,10.0953261 8.03208621,10.068587 C7.92725862,10.0111957 7.86206897,9.90163043 7.86206897,9.7826087 L7.86206897,5.2173913 C7.86206897,5.09836957 7.92725862,4.98880435 8.03208621,4.93141304 C8.13691379,4.87434783 8.26467241,4.87858696 8.36556897,4.94217391 L11.9690172,7.22478261 C12.0633621,7.28478261 12.1206897,7.38847826 12.1206897,7.5 C12.1206897,7.61152174 12.0633621,7.71521739 11.9690172,7.77521739 L11.9690172,7.77521739 Z M15.7241379,11.4130435 L18.3448276,11.4130435 L18.3448276,14.3478261 L15.7241379,14.3478261 L15.7241379,11.4130435 Z M15.7241379,7.82608696 L18.3448276,7.82608696 L18.3448276,10.7608696 L15.7241379,10.7608696 L15.7241379,7.82608696 Z M15.7241379,4.23913043 L18.3448276,4.23913043 L18.3448276,7.17391304 L15.7241379,7.17391304 L15.7241379,4.23913043 Z M15.7241379,0.652173913 L18.3448276,0.652173913 L18.3448276,3.58695652 L15.7241379,3.58695652 L15.7241379,0.652173913 Z"/>
</svg>
